PathFileType	4	(X/Y/Z)	c:/Users/goper/Files/vsCode/490R/osim_files/A06/A06_SSWS_06.trc
DataRate	CameraRate	NumFrames	NumMarkers	Units                	OrigDataRate	OrigDataStartFrame	OrigNumFrames
120.00	120.00	10	36	mm	120.0	696	1390
                Frame#	Time	LPSIS			LASIS			LTH1			LTH2			LTH3			LTH4			LLFE			LMFE			LSH1			LSH2			LSH3			LSH4			LLMAL			LMMAL			LCAL			LMTP5			LTOE			LMTP1			RPSIS			RASIS			RTH1			RTH2			RTH3			RTH4			RLFE			RMFE			RSH1			RSH2			RSH3			RSH4			RLMAL			RMMAL			RCAL			RMTP1			RTOE			RMTP5		
		X1	Y1	Z1	X2	Y2	Z2	X3	Y3	Z3	X4	Y4	Z4	X5	Y5	Z5	X6	Y6	Z6	X7	Y7	Z7	X8	Y8	Z8	X9	Y9	Z9	X10	Y10	Z10	X11	Y11	Z11	X12	Y12	Z12	X13	Y13	Z13	X14	Y14	Z14	X15	Y15	Z15	X16	Y16	Z16	X17	Y17	Z17	X18	Y18	Z18	X19	Y19	Z19	X20	Y20	Z20	X21	Y21	Z21	X22	Y22	Z22	X23	Y23	Z23	X24	Y24	Z24	X25	Y25	Z25	X26	Y26	Z26	X27	Y27	Z27	X28	Y28	Z28	X29	Y29	Z29	X30	Y30	Z30	X31	Y31	Z31	X32	Y32	Z32	X33	Y33	Z33	X34	Y34	Z34	X35	Y35	Z35	X36	Y36	Z36

696	5.79167	497.30865	984.99243	374.00150	299.88516	922.83234	419.10614	461.15186	585.39246	455.87384	462.14410	542.59039	449.27283	398.54700	572.19653	439.72830	412.40936	531.41205	436.71252	463.37231	467.07242	432.54495	461.17264	460.80313	321.57028	548.35944	392.09216	443.49161	554.52380	346.66260	448.97549	487.62653	377.58301	439.84561	500.42429	337.80322	442.78214	607.43671	88.62330	403.04529	587.05444	112.63490	322.90790	675.77716	90.30775	353.64706	495.97186	35.82425	411.03030	457.87033	58.69363	354.05261	482.54370	56.29128	317.46146	511.22934	1003.28528	243.87064	343.14807	975.00714	171.41721	331.99677	583.99194	136.28053	308.10825	548.80127	136.46571	278.97412	609.87512	143.25430	259.73492	569.31213	138.40727	235.74284	456.99243	161.35034	230.44292	459.34290	249.91200	192.19124	305.70990	176.76917	172.10298	262.47263	178.97662	134.97731	326.46680	184.11366	122.54773	279.51822	181.25018	119.40276	134.05617	169.48717	105.31200	146.08742	253.42389	158.83682	92.62007	221.91611	-34.10896	159.10065	238.12904	-40.58667	174.85928	196.66219	-19.73837	147.71887	151.32877
697	5.80000	488.71442	983.07587	373.87741	290.99039	921.85992	418.50125	454.83319	584.65686	455.47531	456.24637	541.86865	448.87561	392.36343	570.89294	439.30719	406.65237	530.22638	436.25690	458.05777	466.23911	432.17142	456.56140	460.28101	321.02078	543.75372	392.08167	443.39722	550.33936	346.69968	448.86087	483.03549	376.70343	439.36710	495.54007	336.37207	443.61279	606.62793	89.47679	402.94595	586.35193	114.03836	321.30701	675.11780	91.29279	353.74496	495.78537	35.74761	411.08987	457.43311	58.10905	353.97894	482.17325	56.70063	317.37302	502.58667	1001.07867	243.75319	334.91953	973.41278	170.46320	321.95044	582.32751	136.60762	297.79285	547.23987	136.80940	0.00000	0.00000	0.00000	250.32335	568.16486	139.43823	224.88972	455.90509	161.84955	219.33443	458.59222	250.47923	180.06387	305.13312	177.89720	159.83051	261.93835	180.09010	123.45208	325.83591	185.21805	110.45719	279.34253	182.15488	106.09182	133.86790	171.02364	91.93912	146.32304	254.88803	145.06256	92.23753	223.74890	-47.40348	160.25685	239.22127	-53.59138	175.97594	197.72513	-32.88990	147.75667	151.97433
698	5.80833	480.07184	981.18298	373.69232	282.19153	920.35132	417.78168	448.35846	583.89587	455.00754	450.29443	540.97845	448.43451	386.17276	569.55505	438.97534	400.78064	529.07233	435.84167	452.74008	465.40295	431.77066	451.54337	459.59210	320.50031	538.94873	392.11026	443.18561	546.04773	346.76389	448.65472	478.76846	376.19580	438.88211	491.63440	335.81500	443.09937	605.82733	90.51458	402.76971	585.25665	114.46686	320.78604	674.38013	92.56781	353.74127	495.66034	35.68700	411.14102	457.05899	57.49702	353.84918	481.33484	54.99867	317.74249	493.85095	998.93127	243.54562	326.28555	971.88275	169.46738	307.63055	578.43207	135.37508	287.51364	545.55426	137.10037	258.88678	607.11243	143.42381	240.36417	566.76501	139.68954	214.14165	454.61819	162.37341	208.85918	457.53937	251.06497	168.52583	304.24423	178.84454	148.04286	261.12250	181.08449	111.97555	325.33093	186.11433	98.65704	278.85846	183.22212	93.42394	133.44800	172.41953	79.32417	146.11565	256.32254	132.21782	91.58850	225.38863	-59.80086	160.88589	240.66667	-65.95769	176.56146	199.07086	-45.49604	148.11873	153.33716
699	5.81667	471.09479	979.33679	373.37405	273.17538	918.86823	417.12616	441.69943	583.17572	454.52850	444.08426	540.19946	447.95615	379.72247	568.27075	438.53131	394.68289	527.87701	435.48389	447.05615	464.58224	431.39142	446.13696	458.89276	320.02838	533.98566	392.16891	442.92139	541.64276	346.84824	448.30386	473.89142	375.31985	438.30798	487.29230	335.35733	442.59479	604.70691	91.64899	402.46216	584.43372	115.00661	320.60571	673.43542	94.11411	353.60544	495.36896	35.64936	411.13666	456.60052	56.76677	353.69351	481.36469	55.41587	317.00247	484.77249	996.83575	243.19427	317.67023	970.10370	168.65816	297.62061	576.73682	135.46362	277.34204	543.95715	137.28760	249.09557	605.47443	143.62181	229.54713	565.43146	139.89508	203.82182	453.15912	162.92062	198.69159	456.29883	251.63336	157.42053	303.12213	179.70006	136.43816	260.14224	182.20000	101.18974	324.37549	187.05083	87.56387	278.07104	184.25778	81.47778	132.71681	173.76283	67.64198	145.62798	257.64606	119.85576	90.57829	226.72488	-71.66187	160.96889	242.28391	-77.67746	176.60938	200.75316	-57.37811	148.05412	155.03949
700	5.82500	462.10608	977.57208	372.85089	263.89828	917.61597	416.57935	434.94656	582.50140	453.92703	437.63242	539.51154	447.39398	373.11850	567.01740	438.20975	388.33881	526.75629	435.04504	441.15933	463.82837	430.89832	440.36935	458.10828	319.57666	528.86371	392.30582	442.56097	537.07874	347.12057	447.92242	468.85770	374.76831	437.69174	482.69553	335.03885	441.92807	603.61926	93.01593	402.12109	583.37494	115.55605	320.12900	672.31128	95.90707	353.35123	495.03128	35.67896	411.09210	456.26437	56.29692	353.74982	481.00067	55.21642	316.51648	475.49756	994.85962	242.61708	306.93860	968.83789	168.22008	287.69983	574.95282	135.49754	267.34106	542.17493	137.39651	239.03188	603.74652	143.84773	219.82988	563.64618	140.26907	193.77979	451.60339	163.43990	188.84328	454.81226	252.11383	146.63284	301.74667	180.52126	124.87828	259.36816	183.84453	89.61220	323.79315	188.06151	76.37573	277.14224	185.54163	70.09322	131.59814	174.99301	56.51730	144.57411	259.02383	108.58834	89.50076	227.76675	-82.58744	160.63954	244.16151	-88.82684	176.29483	202.62556	-68.49471	147.12704	158.15498
701	5.83333	453.09024	975.89288	372.04807	254.84544	916.27942	416.16495	427.99411	581.81384	453.25604	431.89157	539.83832	445.81287	366.13803	565.81323	437.81516	381.96143	525.61853	434.62418	435.16458	463.05551	430.40106	434.31873	457.37711	319.12210	523.39014	392.34933	442.19180	532.34222	347.45944	447.44897	463.70215	374.23367	437.00574	478.16577	334.62146	441.19363	601.39056	95.99040	403.46167	582.31470	116.10661	319.71246	671.44739	98.26343	353.09830	494.50946	35.99441	411.12631	455.62442	55.48175	353.02155	480.72925	55.19105	315.95895	466.15356	993.01196	241.76500	297.47882	967.07520	167.40508	277.67639	573.12134	135.45572	257.42966	540.40198	137.52266	225.82379	602.73065	144.20049	209.85791	561.86963	140.60980	184.00037	449.83701	163.94551	179.63863	453.09625	252.60703	136.70392	299.96503	181.19539	114.69299	257.79013	184.62943	79.90384	321.90283	189.23430	66.17825	275.69070	186.68343	59.44663	130.21709	176.16133	46.44075	143.26239	260.23404	98.30177	88.39392	228.55859	-92.72396	159.63564	246.14053	-99.25590	175.33485	204.65076	-79.34370	145.99324	160.09721
702	5.84167	443.71915	974.10242	371.12802	245.46207	914.91760	415.88449	420.74100	581.03784	452.71906	424.91663	538.78912	445.39627	359.12509	564.57648	437.50320	375.16284	524.53412	434.27664	428.92029	462.31580	430.02271	428.12573	456.66458	318.71359	516.77588	391.94403	442.13638	527.27014	347.72467	447.10828	458.24826	373.58524	436.34976	473.29868	334.26428	440.57556	600.26929	97.51176	403.15790	581.04865	116.93932	319.18729	669.94110	100.29779	352.95016	494.10495	36.04174	411.06796	454.99689	54.73321	352.83792	478.89606	52.90809	317.35754	456.40826	991.08740	240.80556	289.69565	964.56854	166.52632	267.69971	571.13702	135.35797	247.60658	538.40619	137.52412	216.62640	601.56274	144.02989	199.99243	559.82709	140.97034	174.45982	447.80682	164.43764	170.62172	451.06973	253.11882	127.13455	298.02701	181.90230	105.13889	255.87627	185.43954	70.27177	320.02777	190.23738	56.60598	273.80136	187.81155	49.52202	128.35088	177.31923	37.01095	141.40440	261.42545	88.64841	86.45293	229.40398	-102.03162	158.04254	248.19766	-108.91726	173.74310	206.82095	-89.26340	144.37737	162.11003
703	5.85000	434.21677	972.29504	370.09457	236.25591	913.55530	415.85492	413.55548	580.43121	452.24994	417.79272	538.00378	444.88953	351.73355	563.24060	437.32904	368.17062	523.35541	434.00308	422.36230	461.45087	429.63419	421.77634	455.99823	318.40659	512.10858	392.87888	441.65497	521.75958	347.79959	446.59833	452.88907	373.16446	435.79135	468.14810	333.89160	439.98920	599.06665	99.04592	402.95190	579.61444	118.08829	318.83133	668.71198	102.96039	352.86575	493.85300	36.02874	411.09323	454.69745	54.09000	352.99557	478.68173	53.01217	316.99448	446.37463	989.00623	239.72144	279.41806	962.72235	165.94255	258.38470	569.36615	135.28941	238.07080	536.43964	137.49480	206.75899	598.46448	144.70195	190.73579	557.53119	141.26073	165.36766	445.54382	164.90193	162.03294	448.72098	253.61972	118.08107	295.73331	182.56972	96.31220	253.37610	186.18034	61.27035	317.41360	191.01978	47.54520	271.49274	188.88496	40.11598	126.17946	178.55592	28.51074	139.04012	262.61304	79.84385	84.10446	230.25995	-110.78563	155.63853	250.31448	-117.80792	171.41452	208.93834	-98.51818	142.16588	164.08943
704	5.85833	424.68060	970.48798	368.89575	227.01752	912.21808	415.89224	405.92819	579.56036	451.84891	410.56775	537.15332	444.55344	344.30472	561.93671	437.27155	361.02853	522.15326	433.90137	415.66556	460.57986	429.37839	414.09793	455.47281	318.60040	506.45953	393.46768	441.38214	516.67004	348.34521	446.63687	447.30377	372.57220	435.40970	463.29037	333.42328	439.52756	598.50885	100.78090	403.07184	578.01044	119.18254	318.49521	667.58740	106.02200	352.61191	493.86591	36.31054	411.18948	454.11298	53.18375	352.49991	479.50534	54.21325	315.33521	436.28845	986.99481	238.41327	268.81680	960.75854	165.47597	248.57133	567.20148	135.16853	228.47713	534.12347	137.51163	199.79031	595.43335	144.75343	181.30637	555.00720	141.48840	156.49321	442.98041	165.33142	153.84657	446.03079	254.05386	109.56168	293.10321	183.24350	88.04113	250.74879	186.86397	52.79522	314.99167	192.12233	39.14566	268.78894	189.96971	32.12337	123.53396	179.40277	20.72100	136.23634	263.71326	72.00858	81.36555	231.09460	-118.61629	152.68170	252.27002	-125.91968	168.38712	211.00612	-106.94941	139.26578	165.93314
705	5.86667	414.92166	968.68451	367.53275	217.44872	910.95532	416.01956	397.76956	578.65527	451.51190	402.99161	536.37659	444.31839	336.82861	560.94971	437.47556	353.65817	521.03082	433.89166	408.71869	459.83536	429.27634	407.01440	454.81924	318.60590	500.03229	393.48251	441.48065	511.17542	348.89355	446.57620	441.55865	372.12741	435.23035	458.00925	333.25592	439.41025	597.06427	102.70243	402.54495	576.27399	120.57857	318.33780	665.49182	108.58852	353.02750	493.45969	36.43929	411.46567	453.78317	52.67153	352.24246	478.79080	53.88259	315.28363	425.76917	984.89331	237.00990	255.99850	959.40887	165.38042	239.31186	565.08057	135.06288	219.42351	531.82562	137.48521	189.11385	594.12531	144.33234	171.79781	552.46399	141.72479	148.18524	440.17371	165.70457	145.71277	443.19467	254.48045	101.67074	290.13437	183.80096	80.21586	247.67361	187.58133	44.76320	312.05072	192.81258	31.35542	265.64111	190.84219	24.66729	120.38781	180.38345	13.73341	132.95772	264.79126	64.95273	78.22524	231.83972	-125.81946	148.93256	254.08578	-133.31844	164.69336	212.83292	-114.41642	135.57976	167.72311
